<mxfile host="app.diagrams.net" modified="2024-03-18T06:26:18.415Z" agent="Mozilla/5.0 (Windows NT 10.0; Win64; x64) AppleWebKit/537.36 (KHTML, like Gecko) Chrome/119.0.0.0 Safari/537.36 Edg/119.0.0.0" version="24.0.7" etag="HaMGWceoZdLVrftdi-fP" type="github">
  <diagram name="第 1 页" id="Jt81qwoU_8EIQBXdyNeV">
    <mxGraphModel>
      <root>
        <mxCell id="0" />
        <mxCell id="1" parent="0" />
      </root>
    </mxGraphModel>
  </diagram>
</mxfile>
